<mxfile host="app.diagrams.net" modified="2024-01-25T02:55:24.186Z" agent="Mozilla/5.0 (Windows NT 10.0; Win64; x64) AppleWebKit/537.36 (KHTML, like Gecko) Chrome/120.0.0.0 Safari/537.36" etag="lNZtOhyA7nhm5hLia-EZ" version="21.8.2" type="device">
  <diagram name="Page-1" id="M_gMtdXxiSDekQWsr4mL">
    <mxGraphModel dx="2146" dy="581" grid="1" gridSize="10" guides="1" tooltips="1" connect="1" arrows="1" fold="1" page="1" pageScale="1" pageWidth="827" pageHeight="1169" math="0" shadow="0">
      <root>
        <mxCell id="0" />
        <mxCell id="1" parent="0" />
        <mxCell id="LgE8Rc-_upM41QLlvrgV-5" value="1" style="edgeStyle=orthogonalEdgeStyle;rounded=0;orthogonalLoop=1;jettySize=auto;html=1;" edge="1" parent="1" source="LgE8Rc-_upM41QLlvrgV-1" target="LgE8Rc-_upM41QLlvrgV-3">
          <mxGeometry relative="1" as="geometry" />
        </mxCell>
        <mxCell id="LgE8Rc-_upM41QLlvrgV-1" value="Course" style="rounded=0;whiteSpace=wrap;html=1;fillColor=#fff2cc;strokeColor=#d6b656;" vertex="1" parent="1">
          <mxGeometry x="30" y="80" width="150" height="40" as="geometry" />
        </mxCell>
        <mxCell id="LgE8Rc-_upM41QLlvrgV-8" value="1" style="edgeStyle=orthogonalEdgeStyle;rounded=0;orthogonalLoop=1;jettySize=auto;html=1;" edge="1" parent="1" source="LgE8Rc-_upM41QLlvrgV-2" target="LgE8Rc-_upM41QLlvrgV-7">
          <mxGeometry relative="1" as="geometry" />
        </mxCell>
        <mxCell id="LgE8Rc-_upM41QLlvrgV-2" value="Batch" style="rounded=0;whiteSpace=wrap;html=1;fillColor=#fff2cc;strokeColor=#d6b656;" vertex="1" parent="1">
          <mxGeometry x="370" y="80" width="120" height="40" as="geometry" />
        </mxCell>
        <mxCell id="LgE8Rc-_upM41QLlvrgV-4" value="n" style="edgeStyle=orthogonalEdgeStyle;rounded=0;orthogonalLoop=1;jettySize=auto;html=1;" edge="1" parent="1" source="LgE8Rc-_upM41QLlvrgV-3" target="LgE8Rc-_upM41QLlvrgV-2">
          <mxGeometry relative="1" as="geometry" />
        </mxCell>
        <mxCell id="LgE8Rc-_upM41QLlvrgV-3" value="has" style="rhombus;whiteSpace=wrap;html=1;" vertex="1" parent="1">
          <mxGeometry x="230" y="80" width="80" height="40" as="geometry" />
        </mxCell>
        <mxCell id="LgE8Rc-_upM41QLlvrgV-13" value="1" style="edgeStyle=orthogonalEdgeStyle;rounded=0;orthogonalLoop=1;jettySize=auto;html=1;" edge="1" parent="1" source="LgE8Rc-_upM41QLlvrgV-6" target="LgE8Rc-_upM41QLlvrgV-12">
          <mxGeometry relative="1" as="geometry" />
        </mxCell>
        <mxCell id="LgE8Rc-_upM41QLlvrgV-6" value="Student" style="rounded=0;whiteSpace=wrap;html=1;fillColor=#fff2cc;strokeColor=#d6b656;" vertex="1" parent="1">
          <mxGeometry x="370" y="240" width="120" height="40" as="geometry" />
        </mxCell>
        <mxCell id="LgE8Rc-_upM41QLlvrgV-9" value="n" style="edgeStyle=orthogonalEdgeStyle;rounded=0;orthogonalLoop=1;jettySize=auto;html=1;" edge="1" parent="1" source="LgE8Rc-_upM41QLlvrgV-7" target="LgE8Rc-_upM41QLlvrgV-6">
          <mxGeometry relative="1" as="geometry" />
        </mxCell>
        <mxCell id="LgE8Rc-_upM41QLlvrgV-7" value="has" style="rhombus;whiteSpace=wrap;html=1;" vertex="1" parent="1">
          <mxGeometry x="390" y="150" width="80" height="50" as="geometry" />
        </mxCell>
        <mxCell id="LgE8Rc-_upM41QLlvrgV-17" value="n" style="edgeStyle=orthogonalEdgeStyle;rounded=0;orthogonalLoop=1;jettySize=auto;html=1;" edge="1" parent="1" target="LgE8Rc-_upM41QLlvrgV-15">
          <mxGeometry relative="1" as="geometry">
            <mxPoint x="370" y="430" as="sourcePoint" />
          </mxGeometry>
        </mxCell>
        <mxCell id="LgE8Rc-_upM41QLlvrgV-11" value="Subject" style="rounded=0;whiteSpace=wrap;html=1;fillColor=#fff2cc;strokeColor=#d6b656;" vertex="1" parent="1">
          <mxGeometry x="45" y="410" width="120" height="40" as="geometry" />
        </mxCell>
        <mxCell id="LgE8Rc-_upM41QLlvrgV-14" value="n" style="edgeStyle=orthogonalEdgeStyle;rounded=0;orthogonalLoop=1;jettySize=auto;html=1;" edge="1" parent="1" source="LgE8Rc-_upM41QLlvrgV-12">
          <mxGeometry relative="1" as="geometry">
            <mxPoint x="430" y="410" as="targetPoint" />
          </mxGeometry>
        </mxCell>
        <mxCell id="LgE8Rc-_upM41QLlvrgV-12" value="take" style="rhombus;whiteSpace=wrap;html=1;" vertex="1" parent="1">
          <mxGeometry x="390" y="330" width="80" height="40" as="geometry" />
        </mxCell>
        <mxCell id="LgE8Rc-_upM41QLlvrgV-16" value="1" style="edgeStyle=orthogonalEdgeStyle;rounded=0;orthogonalLoop=1;jettySize=auto;html=1;" edge="1" parent="1" source="LgE8Rc-_upM41QLlvrgV-15" target="LgE8Rc-_upM41QLlvrgV-11">
          <mxGeometry relative="1" as="geometry" />
        </mxCell>
        <mxCell id="LgE8Rc-_upM41QLlvrgV-15" value="belong to" style="rhombus;whiteSpace=wrap;html=1;" vertex="1" parent="1">
          <mxGeometry x="230" y="410" width="80" height="40" as="geometry" />
        </mxCell>
        <mxCell id="LgE8Rc-_upM41QLlvrgV-18" value="course-id" style="ellipse;whiteSpace=wrap;html=1;fontStyle=5;labelBackgroundColor=default;fontColor=#fd0d31;" vertex="1" parent="1">
          <mxGeometry x="10" width="80" height="40" as="geometry" />
        </mxCell>
        <mxCell id="LgE8Rc-_upM41QLlvrgV-19" value="c-name" style="ellipse;whiteSpace=wrap;html=1;" vertex="1" parent="1">
          <mxGeometry x="110" y="20" width="80" height="40" as="geometry" />
        </mxCell>
        <mxCell id="LgE8Rc-_upM41QLlvrgV-20" value="fee" style="ellipse;whiteSpace=wrap;html=1;" vertex="1" parent="1">
          <mxGeometry y="150" width="80" height="40" as="geometry" />
        </mxCell>
        <mxCell id="LgE8Rc-_upM41QLlvrgV-21" value="duration" style="ellipse;whiteSpace=wrap;html=1;" vertex="1" parent="1">
          <mxGeometry x="100" y="150" width="80" height="40" as="geometry" />
        </mxCell>
        <mxCell id="LgE8Rc-_upM41QLlvrgV-25" value="" style="endArrow=classic;html=1;rounded=0;exitX=0.25;exitY=0;exitDx=0;exitDy=0;" edge="1" parent="1" source="LgE8Rc-_upM41QLlvrgV-1">
          <mxGeometry width="50" height="50" relative="1" as="geometry">
            <mxPoint y="90" as="sourcePoint" />
            <mxPoint x="50" y="40" as="targetPoint" />
          </mxGeometry>
        </mxCell>
        <mxCell id="LgE8Rc-_upM41QLlvrgV-27" value="" style="endArrow=classic;html=1;rounded=0;entryX=0;entryY=1;entryDx=0;entryDy=0;" edge="1" parent="1" target="LgE8Rc-_upM41QLlvrgV-19">
          <mxGeometry width="50" height="50" relative="1" as="geometry">
            <mxPoint x="90" y="80" as="sourcePoint" />
            <mxPoint x="60" y="50" as="targetPoint" />
          </mxGeometry>
        </mxCell>
        <mxCell id="LgE8Rc-_upM41QLlvrgV-28" value="" style="endArrow=classic;html=1;rounded=0;" edge="1" parent="1" source="LgE8Rc-_upM41QLlvrgV-1" target="LgE8Rc-_upM41QLlvrgV-21">
          <mxGeometry width="50" height="50" relative="1" as="geometry">
            <mxPoint x="220" y="270" as="sourcePoint" />
            <mxPoint x="270" y="220" as="targetPoint" />
          </mxGeometry>
        </mxCell>
        <mxCell id="LgE8Rc-_upM41QLlvrgV-30" value="" style="endArrow=classic;html=1;rounded=0;exitX=0.5;exitY=0;exitDx=0;exitDy=0;entryX=0.5;entryY=0;entryDx=0;entryDy=0;" edge="1" parent="1" target="LgE8Rc-_upM41QLlvrgV-20">
          <mxGeometry width="50" height="50" relative="1" as="geometry">
            <mxPoint x="75" y="120" as="sourcePoint" />
            <mxPoint x="25" y="170" as="targetPoint" />
          </mxGeometry>
        </mxCell>
        <mxCell id="LgE8Rc-_upM41QLlvrgV-32" value="batch no" style="ellipse;whiteSpace=wrap;html=1;fontStyle=5;labelBackgroundColor=default;fontColor=#fd0d31;" vertex="1" parent="1">
          <mxGeometry x="334" width="80" height="40" as="geometry" />
        </mxCell>
        <mxCell id="LgE8Rc-_upM41QLlvrgV-34" value="" style="endArrow=classic;html=1;rounded=0;" edge="1" parent="1" source="LgE8Rc-_upM41QLlvrgV-2">
          <mxGeometry width="50" height="50" relative="1" as="geometry">
            <mxPoint x="334" y="90" as="sourcePoint" />
            <mxPoint x="384" y="40" as="targetPoint" />
          </mxGeometry>
        </mxCell>
        <mxCell id="LgE8Rc-_upM41QLlvrgV-35" value="fee" style="ellipse;whiteSpace=wrap;html=1;" vertex="1" parent="1">
          <mxGeometry x="520" y="70" width="80" height="40" as="geometry" />
        </mxCell>
        <mxCell id="LgE8Rc-_upM41QLlvrgV-36" value="start-date" style="ellipse;whiteSpace=wrap;html=1;" vertex="1" parent="1">
          <mxGeometry x="450" width="80" height="40" as="geometry" />
        </mxCell>
        <mxCell id="LgE8Rc-_upM41QLlvrgV-38" value="" style="endArrow=classic;html=1;rounded=0;" edge="1" parent="1">
          <mxGeometry width="50" height="50" relative="1" as="geometry">
            <mxPoint x="430" y="80" as="sourcePoint" />
            <mxPoint x="480" y="40" as="targetPoint" />
          </mxGeometry>
        </mxCell>
        <mxCell id="LgE8Rc-_upM41QLlvrgV-39" value="" style="endArrow=classic;html=1;rounded=0;" edge="1" parent="1">
          <mxGeometry width="50" height="50" relative="1" as="geometry">
            <mxPoint x="490" y="110" as="sourcePoint" />
            <mxPoint x="520" y="90" as="targetPoint" />
          </mxGeometry>
        </mxCell>
        <mxCell id="LgE8Rc-_upM41QLlvrgV-40" value="roll-no" style="ellipse;whiteSpace=wrap;html=1;fontStyle=5;labelBackgroundColor=default;fontColor=#fd0d31;" vertex="1" parent="1">
          <mxGeometry x="250" y="190" width="80" height="40" as="geometry" />
        </mxCell>
        <mxCell id="LgE8Rc-_upM41QLlvrgV-41" value="name" style="ellipse;whiteSpace=wrap;html=1;" vertex="1" parent="1">
          <mxGeometry x="230" y="240" width="80" height="40" as="geometry" />
        </mxCell>
        <mxCell id="LgE8Rc-_upM41QLlvrgV-43" value="dob" style="ellipse;whiteSpace=wrap;html=1;" vertex="1" parent="1">
          <mxGeometry x="520" y="220" width="80" height="40" as="geometry" />
        </mxCell>
        <mxCell id="LgE8Rc-_upM41QLlvrgV-44" value="" style="endArrow=classic;html=1;rounded=0;exitX=0;exitY=0.5;exitDx=0;exitDy=0;" edge="1" parent="1" source="LgE8Rc-_upM41QLlvrgV-6">
          <mxGeometry width="50" height="50" relative="1" as="geometry">
            <mxPoint x="260" y="280" as="sourcePoint" />
            <mxPoint x="310" y="230" as="targetPoint" />
          </mxGeometry>
        </mxCell>
        <mxCell id="LgE8Rc-_upM41QLlvrgV-45" value="" style="endArrow=classic;html=1;rounded=0;exitX=0;exitY=0.5;exitDx=0;exitDy=0;" edge="1" parent="1" source="LgE8Rc-_upM41QLlvrgV-6" target="LgE8Rc-_upM41QLlvrgV-41">
          <mxGeometry width="50" height="50" relative="1" as="geometry">
            <mxPoint x="360" y="270" as="sourcePoint" />
            <mxPoint x="320" y="240" as="targetPoint" />
          </mxGeometry>
        </mxCell>
        <mxCell id="LgE8Rc-_upM41QLlvrgV-49" value="address" style="ellipse;whiteSpace=wrap;html=1;fillColor=#d0cee2;strokeColor=#56517e;" vertex="1" parent="1">
          <mxGeometry x="270" y="300" width="80" height="40" as="geometry" />
        </mxCell>
        <mxCell id="LgE8Rc-_upM41QLlvrgV-50" value="" style="endArrow=classic;html=1;rounded=0;entryX=1;entryY=0;entryDx=0;entryDy=0;" edge="1" parent="1" target="LgE8Rc-_upM41QLlvrgV-49">
          <mxGeometry width="50" height="50" relative="1" as="geometry">
            <mxPoint x="370" y="260" as="sourcePoint" />
            <mxPoint x="320" y="273" as="targetPoint" />
          </mxGeometry>
        </mxCell>
        <mxCell id="LgE8Rc-_upM41QLlvrgV-51" value="city" style="ellipse;whiteSpace=wrap;html=1;" vertex="1" parent="1">
          <mxGeometry x="140" y="290" width="80" height="40" as="geometry" />
        </mxCell>
        <mxCell id="LgE8Rc-_upM41QLlvrgV-52" value="zip code" style="ellipse;whiteSpace=wrap;html=1;" vertex="1" parent="1">
          <mxGeometry x="140" y="340" width="80" height="40" as="geometry" />
        </mxCell>
        <mxCell id="LgE8Rc-_upM41QLlvrgV-53" value="" style="endArrow=classic;html=1;rounded=0;exitX=0;exitY=0.5;exitDx=0;exitDy=0;" edge="1" parent="1" source="LgE8Rc-_upM41QLlvrgV-49">
          <mxGeometry width="50" height="50" relative="1" as="geometry">
            <mxPoint x="280" y="340" as="sourcePoint" />
            <mxPoint x="220" y="310" as="targetPoint" />
          </mxGeometry>
        </mxCell>
        <mxCell id="LgE8Rc-_upM41QLlvrgV-54" value="" style="endArrow=classic;html=1;rounded=0;exitX=0;exitY=0.5;exitDx=0;exitDy=0;" edge="1" parent="1" source="LgE8Rc-_upM41QLlvrgV-49">
          <mxGeometry width="50" height="50" relative="1" as="geometry">
            <mxPoint x="280" y="390" as="sourcePoint" />
            <mxPoint x="220" y="360" as="targetPoint" />
          </mxGeometry>
        </mxCell>
        <mxCell id="LgE8Rc-_upM41QLlvrgV-56" value="" style="endArrow=classic;html=1;rounded=0;" edge="1" parent="1">
          <mxGeometry width="50" height="50" relative="1" as="geometry">
            <mxPoint x="490" y="260" as="sourcePoint" />
            <mxPoint x="520" y="300" as="targetPoint" />
          </mxGeometry>
        </mxCell>
        <mxCell id="LgE8Rc-_upM41QLlvrgV-57" value="contact" style="ellipse;shape=doubleEllipse;whiteSpace=wrap;html=1;fillColor=#ffe6cc;strokeColor=#d79b00;" vertex="1" parent="1">
          <mxGeometry x="490" y="300" width="80" height="45" as="geometry" />
        </mxCell>
        <mxCell id="LgE8Rc-_upM41QLlvrgV-59" value="Exam" style="shape=ext;double=1;rounded=0;whiteSpace=wrap;html=1;fillColor=#dae8fc;strokeColor=#6c8ebf;" vertex="1" parent="1">
          <mxGeometry x="370" y="410" width="110" height="40" as="geometry" />
        </mxCell>
        <mxCell id="LgE8Rc-_upM41QLlvrgV-60" value="subject-id" style="ellipse;whiteSpace=wrap;html=1;fontStyle=5;labelBackgroundColor=default;fontColor=#fd0d31;" vertex="1" parent="1">
          <mxGeometry x="-35" y="480" width="80" height="40" as="geometry" />
        </mxCell>
        <mxCell id="LgE8Rc-_upM41QLlvrgV-61" value="" style="endArrow=classic;html=1;rounded=0;" edge="1" parent="1">
          <mxGeometry width="50" height="50" relative="1" as="geometry">
            <mxPoint x="490" y="260" as="sourcePoint" />
            <mxPoint x="520" y="240" as="targetPoint" />
          </mxGeometry>
        </mxCell>
        <mxCell id="LgE8Rc-_upM41QLlvrgV-62" value="" style="endArrow=classic;html=1;rounded=0;entryX=0.629;entryY=1.058;entryDx=0;entryDy=0;entryPerimeter=0;" edge="1" parent="1" source="LgE8Rc-_upM41QLlvrgV-42" target="LgE8Rc-_upM41QLlvrgV-43">
          <mxGeometry width="50" height="50" relative="1" as="geometry">
            <mxPoint x="610" y="290" as="sourcePoint" />
            <mxPoint x="590" y="250" as="targetPoint" />
          </mxGeometry>
        </mxCell>
        <mxCell id="LgE8Rc-_upM41QLlvrgV-63" value="" style="endArrow=classic;html=1;rounded=0;" edge="1" parent="1" target="LgE8Rc-_upM41QLlvrgV-42">
          <mxGeometry width="50" height="50" relative="1" as="geometry">
            <mxPoint x="610" y="290" as="sourcePoint" />
            <mxPoint x="590" y="250" as="targetPoint" />
          </mxGeometry>
        </mxCell>
        <mxCell id="LgE8Rc-_upM41QLlvrgV-42" value="age" style="ellipse;whiteSpace=wrap;html=1;fillColor=#d5e8d4;strokeColor=#82b366;" vertex="1" parent="1">
          <mxGeometry x="580" y="290" width="80" height="40" as="geometry" />
        </mxCell>
        <mxCell id="LgE8Rc-_upM41QLlvrgV-64" value="hours" style="ellipse;whiteSpace=wrap;html=1;" vertex="1" parent="1">
          <mxGeometry x="-70" y="410" width="80" height="40" as="geometry" />
        </mxCell>
        <mxCell id="LgE8Rc-_upM41QLlvrgV-65" value="name" style="ellipse;whiteSpace=wrap;html=1;" vertex="1" parent="1">
          <mxGeometry x="80" y="480" width="80" height="40" as="geometry" />
        </mxCell>
        <mxCell id="LgE8Rc-_upM41QLlvrgV-66" value="fee" style="ellipse;whiteSpace=wrap;html=1;" vertex="1" parent="1">
          <mxGeometry y="350" width="80" height="40" as="geometry" />
        </mxCell>
        <mxCell id="LgE8Rc-_upM41QLlvrgV-67" value="" style="endArrow=classic;html=1;rounded=0;entryX=1;entryY=1;entryDx=0;entryDy=0;" edge="1" parent="1" target="LgE8Rc-_upM41QLlvrgV-66">
          <mxGeometry width="50" height="50" relative="1" as="geometry">
            <mxPoint x="90" y="410" as="sourcePoint" />
            <mxPoint x="140" y="360" as="targetPoint" />
          </mxGeometry>
        </mxCell>
        <mxCell id="LgE8Rc-_upM41QLlvrgV-68" value="" style="endArrow=classic;html=1;rounded=0;entryX=1;entryY=0.5;entryDx=0;entryDy=0;exitX=0;exitY=0.5;exitDx=0;exitDy=0;" edge="1" parent="1" source="LgE8Rc-_upM41QLlvrgV-11" target="LgE8Rc-_upM41QLlvrgV-64">
          <mxGeometry width="50" height="50" relative="1" as="geometry">
            <mxPoint x="100" y="420" as="sourcePoint" />
            <mxPoint x="78" y="394" as="targetPoint" />
          </mxGeometry>
        </mxCell>
        <mxCell id="LgE8Rc-_upM41QLlvrgV-71" value="" style="endArrow=classic;html=1;rounded=0;entryX=0.5;entryY=0;entryDx=0;entryDy=0;exitX=0.444;exitY=1.042;exitDx=0;exitDy=0;exitPerimeter=0;" edge="1" parent="1" source="LgE8Rc-_upM41QLlvrgV-11" target="LgE8Rc-_upM41QLlvrgV-60">
          <mxGeometry width="50" height="50" relative="1" as="geometry">
            <mxPoint x="80" y="450" as="sourcePoint" />
            <mxPoint x="130" y="400" as="targetPoint" />
          </mxGeometry>
        </mxCell>
        <mxCell id="LgE8Rc-_upM41QLlvrgV-72" value="" style="endArrow=classic;html=1;rounded=0;entryX=0.5;entryY=0;entryDx=0;entryDy=0;exitX=0.5;exitY=1;exitDx=0;exitDy=0;" edge="1" parent="1" source="LgE8Rc-_upM41QLlvrgV-11" target="LgE8Rc-_upM41QLlvrgV-65">
          <mxGeometry width="50" height="50" relative="1" as="geometry">
            <mxPoint x="90" y="460" as="sourcePoint" />
            <mxPoint x="15" y="490" as="targetPoint" />
          </mxGeometry>
        </mxCell>
        <mxCell id="LgE8Rc-_upM41QLlvrgV-73" value="mark" style="ellipse;whiteSpace=wrap;html=1;" vertex="1" parent="1">
          <mxGeometry x="390" y="490" width="80" height="40" as="geometry" />
        </mxCell>
        <mxCell id="LgE8Rc-_upM41QLlvrgV-74" value="" style="endArrow=classic;html=1;rounded=0;" edge="1" parent="1">
          <mxGeometry width="50" height="50" relative="1" as="geometry">
            <mxPoint x="429.41" y="450" as="sourcePoint" />
            <mxPoint x="429" y="490" as="targetPoint" />
          </mxGeometry>
        </mxCell>
      </root>
    </mxGraphModel>
  </diagram>
</mxfile>
